<?xml version="1.0" encoding="UTF-8" standalone="no"?>
<!DOCTYPE svg PUBLIC "-//W3C//DTD SVG 1.1//EN" "http://www.w3.org/Graphics/SVG/1.1/DTD/svg11.dtd">
<svg width="100%" height="100%" viewBox="0 0 46 46" version="1.1" xmlns="http://www.w3.org/2000/svg" xmlns:xlink="http://www.w3.org/1999/xlink" xml:space="preserve" xmlns:serif="http://www.serif.com/" style="fill-rule:evenodd;clip-rule:evenodd;stroke-linejoin:round;stroke-miterlimit:2;">
    <g transform="matrix(-1.57403,0,0,1.5415,57.7731,-12.2827)">
        <path d="M24.679,27.404L25.128,27.402L26.14,27.396C27.798,27.396 29.144,26.022 29.144,24.329L29.144,20.766C29.144,19.073 27.798,17.699 26.14,17.699L18.177,17.699C16.519,17.699 15.173,19.073 15.173,20.766L15.173,24.329C15.173,26.022 16.519,27.396 18.177,27.396C18.289,27.396 18.397,27.442 18.476,27.523C18.555,27.604 18.599,27.714 18.599,27.828C18.597,28.317 18.595,29.124 18.593,29.734C18.592,29.896 18.68,30.044 18.819,30.12C18.959,30.196 19.129,30.186 19.259,30.095C20.362,29.325 22.491,27.838 22.992,27.488C23.062,27.439 23.145,27.413 23.23,27.412C23.486,27.411 24.082,27.407 24.679,27.404Z" style="fill:white;"/>
    </g>
</svg>
