<?xml version="1.0" encoding="UTF-8" standalone="no"?>
<!DOCTYPE svg PUBLIC "-//W3C//DTD SVG 1.1//EN" "http://www.w3.org/Graphics/SVG/1.1/DTD/svg11.dtd">
<svg width="100%" height="100%" viewBox="0 0 24 24" version="1.1" xmlns="http://www.w3.org/2000/svg" xmlns:xlink="http://www.w3.org/1999/xlink" xml:space="preserve" xmlns:serif="http://www.serif.com/" style="fill-rule:evenodd;clip-rule:evenodd;stroke-linecap:round;stroke-linejoin:round;stroke-miterlimit:1.5;">
    <g transform="matrix(1.4,0,0,1.4,-2.6,9.8)">
        <path d="M6.5,3C7.88,3 9,4.12 9,5.5C9,6.88 7.88,8 6.5,8C5.12,8 4,6.88 4,5.5C4,4.12 5.12,3 6.5,3ZM6.5,3C7.88,3 9,4.12 9,5.5C9,6.88 7.88,8 6.5,8C5.12,8 4,6.88 4,5.5C4,4.12 5.12,3 6.5,3Z" style="fill:none;stroke:black;stroke-width:1.43px;"/>
    </g>
    <g transform="matrix(1,0,0,0.857143,1,0.285714)">
        <path d="M5.5,16L5.5,2" style="fill:none;stroke:black;stroke-width:2.15px;stroke-linecap:butt;"/>
    </g>
    <g transform="matrix(1.4,0,0,1.4,8.4,-1.2)">
        <path d="M6.5,3C7.88,3 9,4.12 9,5.5C9,6.88 7.88,8 6.5,8C5.12,8 4,6.88 4,5.5C4,4.12 5.12,3 6.5,3ZM6.5,3C7.88,3 9,4.12 9,5.5C9,6.88 7.88,8 6.5,8C5.12,8 4,6.88 4,5.5C4,4.12 5.12,3 6.5,3Z" style="fill:none;stroke:black;stroke-width:1.43px;"/>
    </g>
    <g transform="matrix(0.714286,0,0,0.882359,4.28571,0.294052)">
        <path d="M18.5,11L18.5,19.5C18.5,19.5 14,19.5 8,19.5" style="fill:none;stroke:black;stroke-width:2.49px;stroke-linecap:butt;"/>
    </g>
</svg>
