<?xml version="1.0" encoding="UTF-8" standalone="no"?>
<!DOCTYPE svg PUBLIC "-//W3C//DTD SVG 1.1//EN" "http://www.w3.org/Graphics/SVG/1.1/DTD/svg11.dtd">
<svg width="100%" height="100%" viewBox="0 0 4000 4000" version="1.1" xmlns="http://www.w3.org/2000/svg" xmlns:xlink="http://www.w3.org/1999/xlink" xml:space="preserve" xmlns:serif="http://www.serif.com/" style="fill-rule:evenodd;clip-rule:evenodd;stroke-linejoin:round;stroke-miterlimit:2;">
    <g transform="matrix(0.999773,0.0213053,-0.0213053,0.999773,20.4818,-48.8887)">
        <path d="M1382.61,1638.64L1725.72,1258.29L3804,3234.09C3831.4,3260.04 3847.37,3295.81 3848.4,3333.53C3849.43,3371.25 3835.42,3407.84 3809.47,3435.24C3760.61,3486.83 3701.65,3549.08 3652.79,3600.68C3626.84,3628.07 3591.07,3644.04 3553.35,3645.06C3515.63,3646.09 3479.05,3632.09 3451.65,3606.14C3365.23,3524.28 3235.97,3400.8 3235.97,3400.8C3235.97,3400.8 2919.2,3734.82 2753.86,3909.18C2727.89,3936.56 2692.11,3952.5 2654.39,3953.5C2616.67,3954.5 2580.1,3940.48 2552.72,3914.51C2476.83,3842.55 2374.14,3745.17 2298.26,3673.2C2270.88,3647.24 2254.93,3611.46 2253.93,3573.74C2252.93,3536.02 2266.96,3499.45 2292.93,3472.07C2458.21,3297.78 2774.77,2963.97 2774.77,2963.97L2516.44,2719.29C2516.44,2719.29 2390.47,2852.12 2297.35,2950.32C2271.39,2977.7 2235.61,2993.64 2197.89,2994.64C2160.17,2995.64 2123.6,2981.62 2096.22,2955.65C2082.2,2942.36 2041.81,2901.71 2027.79,2888.42C2000.41,2862.45 1984.47,2826.67 1983.47,2788.95C1982.46,2751.23 1996.49,2714.66 2022.46,2687.28C2115.53,2589.13 2241.4,2456.41 2241.4,2456.41L1382.61,1638.64Z" style="fill:rgb(98,207,160);"/>
    </g>
    <path d="M1858.36,415.631C1868.04,250.228 1741.8,108.297 1576.4,98.618C1291.16,81.928 864.153,56.941 578.914,40.251C413.511,30.572 271.58,156.811 261.902,322.214C245.211,607.453 220.225,1034.46 203.534,1319.7C193.855,1485.1 320.095,1627.03 485.497,1636.71C770.736,1653.4 1197.74,1678.39 1482.98,1695.08C1648.38,1704.76 1790.31,1578.52 1799.99,1413.11C1816.68,1127.88 1841.67,700.87 1858.36,415.631ZM1367.62,753.185C1373,642.859 1287.92,549.064 1177.59,543.688C1094.09,539.619 997.268,534.901 913.769,530.832C803.443,525.456 709.648,610.535 704.272,720.861C700.203,804.36 695.485,901.185 691.416,984.684C686.04,1095.01 771.119,1188.81 881.445,1194.18C964.944,1198.25 1061.77,1202.97 1145.27,1207.04C1255.59,1212.41 1349.39,1127.33 1354.77,1017.01C1358.83,933.509 1363.55,836.684 1367.62,753.185Z" style="fill:rgb(98,207,160);"/>
</svg>
