<?xml version="1.0" encoding="UTF-8" standalone="no"?>
<!DOCTYPE svg PUBLIC "-//W3C//DTD SVG 1.1//EN" "http://www.w3.org/Graphics/SVG/1.1/DTD/svg11.dtd">
<svg width="100%" height="100%" viewBox="0 0 1280 1280" version="1.1" xmlns="http://www.w3.org/2000/svg" xmlns:xlink="http://www.w3.org/1999/xlink" xml:space="preserve" xmlns:serif="http://www.serif.com/" style="fill-rule:evenodd;clip-rule:evenodd;stroke-linejoin:round;stroke-miterlimit:2;">
    <path d="M1280,263.133L1280,1016.87C1280,1162.09 1162.09,1280 1016.87,1280L263.133,1280C117.906,1280 0,1162.09 0,1016.87L0,263.133C0,117.906 117.906,0 263.133,0L1016.87,0C1162.09,0 1280,117.906 1280,263.133ZM343.555,641.533C341.094,698.245 285.36,743.43 193.404,759.549C141.636,770.958 147.164,816.432 193.404,857.144C304.344,949.513 362.697,947.323 486.362,941.534C553.647,996.753 639.714,1029.91 733.464,1029.91C948.661,1029.91 1123.38,855.197 1123.38,640C1123.38,424.803 948.661,250.089 733.464,250.089C518.265,250.089 343.552,424.803 343.552,640C343.552,640.511 343.553,641.022 343.555,641.533Z" style="fill:white;"/>
    <g transform="matrix(0.996625,0,0,0.962063,-15.8665,23.8902)">
        <path d="M773.455,673.551C773.69,673.8 773.928,674.075 773.455,673.551ZM773.455,673.551C773.454,673.55 773.452,673.548 773.451,673.547C773.266,673.333 713.508,607.315 713.508,607.315C708.714,603.285 702.433,600.471 695.978,600.299L624.637,600.299C624.554,600.304 624.471,600.299 624.389,600.299L592.134,600.299C587.783,622.999 568.631,640.102 545.654,640.102C519.461,640.102 498.23,617.897 498.23,590.504C498.23,563.12 519.461,540.916 545.654,540.916C568.627,540.916 587.779,558.005 592.129,580.686L624.959,580.686C631.427,580.524 637.715,577.714 642.514,573.689C642.514,573.689 702.285,507.666 702.465,507.455C702.951,506.926 702.71,507.196 702.479,507.45C710.956,498.9 724.275,491.607 736.986,491.607L783.885,491.615C787.765,480.065 798.186,471.726 810.575,471.726C826.248,471.726 838.966,485.022 838.966,501.426C838.966,517.822 826.247,531.122 810.575,531.122C798.186,531.122 787.765,522.779 783.885,511.219C778.162,511.231 762.613,511.238 736.43,511.238C729.958,511.395 723.666,514.223 718.857,518.254L662.351,580.688L952.554,580.688L952.554,566.555C952.554,564.43 953.65,562.468 955.428,561.41C957.207,560.352 959.395,560.359 961.167,561.429L1000.84,585.392C1002.6,586.455 1003.69,588.406 1003.69,590.517C1003.69,592.629 1002.6,594.581 1000.84,595.644L961.166,619.603C959.395,620.672 957.206,620.68 955.428,619.622C953.65,618.564 952.554,616.601 952.554,614.477L952.554,600.303L733.32,600.303L789.839,662.749C794.644,666.78 800.943,669.604 807.417,669.76C841.264,669.76 853.168,669.782 853.168,669.782L853.168,655.833C853.168,652.556 855.732,649.899 858.896,649.899L904.232,649.899C905.751,649.899 907.208,650.525 908.282,651.638C909.357,652.751 909.959,654.259 909.959,655.833L909.959,703.354C909.959,704.927 909.357,706.437 908.282,707.55C907.208,708.663 905.751,709.287 904.232,709.287L858.896,709.287C855.732,709.287 853.168,706.631 853.168,703.354L853.168,689.378L807.97,689.389C795.257,689.389 781.932,682.1 773.455,673.551Z" style="fill:white;"/>
    </g>
</svg>
