<?xml version="1.0" encoding="UTF-8" standalone="no"?>
<!DOCTYPE svg PUBLIC "-//W3C//DTD SVG 1.1//EN" "http://www.w3.org/Graphics/SVG/1.1/DTD/svg11.dtd">
<svg width="100%" height="100%" viewBox="0 0 1280 1280" version="1.1" xmlns="http://www.w3.org/2000/svg" xmlns:xlink="http://www.w3.org/1999/xlink" xml:space="preserve" xmlns:serif="http://www.serif.com/" style="fill-rule:evenodd;clip-rule:evenodd;stroke-linejoin:round;stroke-miterlimit:2;">
    <g id="logo">
        <g transform="matrix(1.26068,0,0,1.26068,-152.928,-333.671)">
            <path d="M1136.63,416.974C1136.63,332.918 1068.39,264.675 984.332,264.675L273.605,264.675C189.549,264.675 121.306,332.918 121.306,416.974L121.306,1127.7C121.306,1211.76 189.549,1280 273.605,1280L984.332,1280C1068.39,1280 1136.63,1211.76 1136.63,1127.7L1136.63,416.974Z" style="fill:rgb(144,119,239);"/>
        </g>
        <g transform="matrix(2.2043,0,0,2.2043,10.2151,-463.833)">
            <circle cx="323.64" cy="500.764" r="155.847" style="fill:white;"/>
        </g>
        <g transform="matrix(2.2043,0,0,2.2043,10.2151,-463.833)">
            <path d="M167.792,500.764C167.177,524.705 144.495,543.821 106.852,550.601C85.849,555.357 88.092,574.314 106.852,591.286C154.087,631.696 177.825,628.693 233.35,626.102L167.792,500.764Z" style="fill:white;"/>
        </g>
        <g id="USB_icon.svg" transform="matrix(0.988527,0,0,0.988527,723.613,598.293)">
            <g transform="matrix(1,0,0,1,-237.624,-114.046)">
                <path id="path1334" d="M455.338,118.384C456.884,117.491 457.837,115.84 457.837,114.054C457.837,112.268 456.885,110.617 455.338,109.724C445.89,104.268 429.748,94.946 420.299,89.489C418.752,88.596 416.846,88.596 415.299,89.489C413.752,90.382 412.799,92.033 412.799,93.819L412.799,105.771L157.046,105.771L206.844,53.159C211.082,49.762 216.627,47.379 222.331,47.247C245.406,47.247 259.109,47.241 264.153,47.231C267.572,56.972 276.756,64.003 287.674,64.003C301.486,64.003 312.695,52.795 312.695,38.978C312.695,25.155 301.487,13.951 287.674,13.951C276.756,13.951 267.572,20.978 264.153,30.711L222.821,30.704C211.619,30.704 199.881,36.85 192.41,44.055C192.614,43.841 192.826,43.613 192.398,44.059C192.24,44.237 139.564,99.873 139.564,99.873C135.335,103.265 129.793,105.633 124.093,105.769L95.161,105.769C91.326,86.656 74.448,72.256 54.202,72.256C31.119,72.256 12.408,90.967 12.408,114.043C12.408,137.126 31.119,155.838 54.202,155.838C74.452,155.838 91.33,141.426 95.165,122.297L123.59,122.297C123.663,122.297 123.736,122.301 123.81,122.297L186.681,122.297C192.37,122.442 197.905,124.813 202.13,128.209C202.13,128.209 254.794,183.841 254.957,184.021C255.379,184.468 255.169,184.235 254.961,184.025C262.432,191.229 274.175,197.371 285.379,197.371L325.211,197.362L325.211,209.139C325.211,211.9 327.45,214.139 330.211,214.139C339.8,214.139 360.672,214.139 370.261,214.139C371.587,214.139 372.859,213.612 373.797,212.675C374.734,211.737 375.261,210.465 375.261,209.139C375.261,199.551 375.261,178.682 375.261,169.094C375.261,167.768 374.734,166.496 373.797,165.558C372.859,164.621 371.587,164.094 370.261,164.094C360.672,164.094 339.8,164.094 330.211,164.094C327.45,164.094 325.211,166.333 325.211,169.094C325.211,174.031 325.211,180.849 325.211,180.849C325.211,180.849 314.72,180.83 284.891,180.83C279.186,180.699 273.635,178.319 269.399,174.922L219.59,122.3L412.799,122.3L412.799,134.285C412.799,136.072 413.752,137.722 415.299,138.615C416.846,139.509 418.752,139.509 420.299,138.615C429.748,133.159 445.89,123.839 455.338,118.384Z" style="fill:rgb(144,119,239);fill-rule:nonzero;"/>
            </g>
        </g>
    </g>
</svg>
