<?xml version="1.0" encoding="UTF-8" standalone="no"?>
<!DOCTYPE svg PUBLIC "-//W3C//DTD SVG 1.1//EN" "http://www.w3.org/Graphics/SVG/1.1/DTD/svg11.dtd">
<svg width="100%" height="100%" viewBox="0 0 1280 1280" version="1.1" xmlns="http://www.w3.org/2000/svg" xmlns:xlink="http://www.w3.org/1999/xlink" xml:space="preserve" xmlns:serif="http://www.serif.com/" style="fill-rule:evenodd;clip-rule:evenodd;stroke-linejoin:round;stroke-miterlimit:2;">
    <g transform="matrix(1.49832,0,0,1.49832,-318.922,-318.922)">
        <g id="logo">
            <g transform="matrix(2.17163,0,0,2.11347,13.2185,-418.349)">
                <path d="M167.792,500.764C167.177,524.705 144.495,543.821 106.852,550.601C85.849,555.357 88.092,574.314 106.852,591.286C154.087,631.696 177.825,628.693 233.35,626.102L167.792,500.764Z" style="fill:white;"/>
            </g>
            <path d="M723.613,296.466C913.214,296.466 1067.15,450.399 1067.15,640C1067.15,829.601 913.214,983.534 723.613,983.534C534.011,983.534 380.079,829.601 380.079,640C380.079,450.399 534.011,296.466 723.613,296.466ZM939.656,602.622C941.193,601.726 942.138,600.081 942.138,598.302C942.138,596.523 941.193,594.879 939.656,593.983L905.021,573.79C903.474,572.888 901.564,572.882 900.011,573.774C898.459,574.665 897.502,576.319 897.502,578.109L897.502,590.019L644.168,590.019L693.495,537.407C697.693,534.01 703.186,531.627 708.836,531.495C731.692,531.495 745.266,531.489 750.262,531.479C753.649,541.22 762.746,548.251 773.561,548.251C787.242,548.251 798.345,537.043 798.345,523.226C798.345,509.403 787.243,498.199 773.561,498.199C762.746,498.199 753.649,505.226 750.262,514.959L709.321,514.952C698.225,514.952 686.598,521.098 679.198,528.303C679.4,528.089 679.61,527.861 679.186,528.307C679.029,528.485 626.851,584.121 626.851,584.121C622.662,587.513 617.173,589.881 611.527,590.017L582.868,590.017C579.07,570.904 562.351,556.504 542.297,556.504C519.432,556.504 500.898,575.215 500.898,598.291C500.898,621.374 519.432,640.086 542.297,640.086C562.355,640.086 579.074,625.674 582.872,606.545L611.029,606.545C611.101,606.545 611.173,606.549 611.246,606.545L673.523,606.545C679.158,606.69 684.641,609.061 688.826,612.457C688.826,612.457 740.992,668.089 741.153,668.269C741.571,668.716 741.363,668.483 741.157,668.273C748.557,675.477 760.189,681.619 771.287,681.619L810.743,681.61L810.743,693.387C810.743,696.149 812.981,698.387 815.743,698.387L855.319,698.387C856.645,698.387 857.917,697.861 858.855,696.923C859.793,695.985 860.319,694.713 860.319,693.387L860.319,653.342C860.319,652.016 859.793,650.745 858.855,649.807C857.917,648.869 856.645,648.342 855.319,648.342L815.743,648.342C812.981,648.342 810.743,650.581 810.743,653.342L810.743,665.097C810.743,665.097 800.351,665.078 770.804,665.078C765.153,664.947 759.654,662.567 755.459,659.17L706.121,606.548L897.502,606.548L897.502,618.492C897.502,620.282 898.459,621.936 900.011,622.828C901.563,623.719 903.474,623.713 905.02,622.812L939.656,602.622Z" style="fill:white;"/>
        </g>
    </g>
</svg>
