<?xml version="1.0" encoding="UTF-8" standalone="no"?>
<!DOCTYPE svg PUBLIC "-//W3C//DTD SVG 1.1//EN" "http://www.w3.org/Graphics/SVG/1.1/DTD/svg11.dtd">
<svg width="100%" height="100%" viewBox="0 0 1280 1280" version="1.1" xmlns="http://www.w3.org/2000/svg" xmlns:xlink="http://www.w3.org/1999/xlink" xml:space="preserve" xmlns:serif="http://www.serif.com/" style="fill-rule:evenodd;clip-rule:evenodd;stroke-linejoin:round;stroke-miterlimit:2;">
    <g transform="matrix(1.27806,0,0,1.27806,-104.834,293.748)">
        <g id="Layer1">
            <g transform="matrix(0.782438,0,0,0.782438,82.0262,-255.288)">
                <path d="M1048.25,254.374L567.343,254.374C545.442,185.779 481.148,136.047 405.33,136.047L284.115,136.047C301.171,93.302 342.964,63.065 391.763,63.065L932.399,63.065C996.338,63.065 1048.25,114.976 1048.25,178.916L1048.25,254.374Z" style="fill:white;"/>
            </g>
            <g transform="matrix(0.782438,0,0,0.782438,82.0262,-205.943)">
                <path d="M1280,428.692L1280,1079.47C1280,1156.43 1217.51,1218.92 1140.55,1218.92L139.452,1218.92C62.486,1218.92 0,1156.43 0,1079.47L0,428.692C0,351.726 62.486,289.24 139.452,289.24L1140.55,289.24C1217.51,289.24 1280,351.726 1280,428.692ZM1080.5,643.429C1049.96,643.429 1025.17,668.22 1025.17,698.754C1025.17,729.289 1049.96,754.079 1080.5,754.079C1111.03,754.079 1135.83,729.289 1135.83,698.754C1135.83,668.22 1111.03,643.429 1080.5,643.429ZM926.055,645.627C926.055,607.162 894.826,575.933 856.361,575.933L427.008,575.933C388.543,575.933 357.314,607.162 357.314,645.627L357.314,757.638C357.314,853.996 435.544,932.226 531.902,932.226L751.467,932.226C847.825,932.226 926.055,853.996 926.055,757.638L926.055,645.627ZM199.5,641.659C168.966,641.659 144.175,666.449 144.175,696.984C144.175,727.519 168.966,752.309 199.5,752.309C230.035,752.309 254.825,727.519 254.825,696.984C254.825,666.449 230.035,641.659 199.5,641.659Z" style="fill:white;"/>
            </g>
            <g transform="matrix(0.785319,0,0,0.90717,82.0262,-318.706)">
                <path d="M493.543,356.472C493.543,298.375 439.056,251.207 371.944,251.207L121.599,251.207C54.487,251.207 0,298.375 0,356.472L0,461.738L432.743,461.738C466.299,461.738 493.543,438.154 493.543,409.105L493.543,356.472Z" style="fill:white;"/>
            </g>
            <g transform="matrix(0.782438,0,0,1.23309,91.7162,-626.642)">
                <path d="M786.428,852.632C786.428,862.297 778.581,870.144 768.916,870.144L685.127,870.144C675.462,870.144 667.616,862.297 667.616,852.632C667.616,842.967 675.462,835.12 685.127,835.12L768.916,835.12C778.581,835.12 786.428,842.967 786.428,852.632Z" style="fill:white;"/>
            </g>
            <g transform="matrix(0.782438,0,0,1.23309,72.3583,-626.642)">
                <path d="M612.356,852.632C612.356,862.297 604.509,870.144 594.844,870.144L511.056,870.144C501.391,870.144 493.544,862.297 493.544,852.632C493.544,842.967 501.391,835.12 511.056,835.12L594.844,835.12C604.509,835.12 612.356,842.967 612.356,852.632Z" style="fill:white;"/>
            </g>
        </g>
    </g>
</svg>
