<?xml version="1.0" encoding="UTF-8" standalone="no"?>
<!DOCTYPE svg PUBLIC "-//W3C//DTD SVG 1.1//EN" "http://www.w3.org/Graphics/SVG/1.1/DTD/svg11.dtd">
<svg width="100%" height="100%" viewBox="0 0 512 512" version="1.1" xmlns="http://www.w3.org/2000/svg" xmlns:xlink="http://www.w3.org/1999/xlink" xml:space="preserve" xmlns:serif="http://www.serif.com/" style="fill-rule:evenodd;clip-rule:evenodd;stroke-linejoin:round;stroke-miterlimit:2;">
    <g transform="matrix(1.06498,0,0,1.06498,-33.27,7.14522)">
        <path d="M512,89.443C512,36.375 468.916,-6.709 415.848,-6.709L127.392,-6.709C74.324,-6.709 31.24,36.375 31.24,89.443L31.24,377.899C31.24,430.967 74.324,474.051 127.392,474.051L415.848,474.051C468.916,474.051 512,430.967 512,377.899L512,89.443Z" style="fill:rgb(255,105,105);"/>
    </g>
    <g transform="matrix(0.929268,0,0,0.898693,18.1074,26.0296)">
        <path d="M288.99,103.947L180.751,103.947C164.193,103.947 150.751,117.39 150.751,133.947L150.751,377.947C150.751,394.505 164.193,407.947 180.751,407.947L331.249,407.947C347.807,407.947 361.249,394.505 361.249,377.947L361.249,176.26L288.99,103.947Z" style="fill:white;"/>
        <clipPath id="_clip1">
            <path d="M288.99,103.947L180.751,103.947C164.193,103.947 150.751,117.39 150.751,133.947L150.751,377.947C150.751,394.505 164.193,407.947 180.751,407.947L331.249,407.947C347.807,407.947 361.249,394.505 361.249,377.947L361.249,176.26L288.99,103.947Z"/>
        </clipPath>
        <g clip-path="url(#_clip1)">
            <g transform="matrix(0.144815,0,0,0.110527,252.973,83.7286)">
                <path d="M747.685,485.429C747.685,318.738 647.794,183.406 524.756,183.406L248.705,183.406L248.705,535.156C248.705,701.847 348.596,837.179 471.633,837.179L747.685,837.179L747.685,485.429Z" style="fill:rgb(232,233,238);"/>
            </g>
        </g>
    </g>
    <g transform="matrix(1.67833,0,0,1.67833,-353.344,-142.03)">
        <text x="336.809px" y="239.428px" style="font-family:'K2D-SemiBold', 'K2D';font-weight:600;font-size:63.345px;fill:rgb(255,105,105);">@</text>
    </g>
    <g transform="matrix(2.30696e-17,0.376755,-0.649234,3.97541e-17,532.108,128.662)">
        <path d="M404.302,440.748C402.06,440.748 399.91,440.231 398.325,439.311C396.74,438.391 395.849,437.143 395.849,435.842C395.849,430.059 395.849,420.505 395.849,414.722C395.849,413.421 396.74,412.174 398.325,411.254C399.91,410.334 402.06,409.817 404.302,409.817C429.391,409.817 501.694,409.817 501.694,409.817L501.694,391.593C501.694,389.688 503.594,387.955 506.568,387.149C509.542,386.343 513.052,386.608 515.57,387.83C534.982,397.252 569.59,414.048 584.984,421.519C586.905,422.452 588.014,423.83 588.014,425.282C588.014,426.735 586.905,428.113 584.984,429.045C569.59,436.517 534.982,453.313 515.57,462.734C513.052,463.957 509.542,464.222 506.568,463.416C503.594,462.609 501.694,460.877 501.694,458.972C501.694,450.768 501.694,440.748 501.694,440.748L404.302,440.748Z" style="fill:rgb(255,105,105);"/>
    </g>
</svg>
