<?xml version="1.0" encoding="UTF-8" standalone="no"?>
<!DOCTYPE svg PUBLIC "-//W3C//DTD SVG 1.1//EN" "http://www.w3.org/Graphics/SVG/1.1/DTD/svg11.dtd">
<svg width="100%" height="100%" viewBox="0 0 512 512" version="1.1" xmlns="http://www.w3.org/2000/svg" xmlns:xlink="http://www.w3.org/1999/xlink" xml:space="preserve" xmlns:serif="http://www.serif.com/" style="fill-rule:evenodd;clip-rule:evenodd;stroke-linejoin:round;stroke-miterlimit:2;">
    <g transform="matrix(1.06498,0,0,1.06498,-33.27,7.14522)">
        <path d="M512,89.443C512,36.375 468.916,-6.709 415.848,-6.709L127.392,-6.709C74.324,-6.709 31.24,36.375 31.24,89.443L31.24,377.899C31.24,430.967 74.324,474.051 127.392,474.051L415.848,474.051C468.916,474.051 512,430.967 512,377.899L512,89.443Z" style="fill:rgb(255,105,105);"/>
    </g>
    <g transform="matrix(0.929268,0,0,0.898693,18.1074,26.0296)">
        <path d="M288.99,103.947L180.751,103.947C164.193,103.947 150.751,117.39 150.751,133.947L150.751,377.947C150.751,394.505 164.193,407.947 180.751,407.947L331.249,407.947C347.807,407.947 361.249,394.505 361.249,377.947L361.249,176.26L288.99,103.947Z" style="fill:white;"/>
        <clipPath id="_clip1">
            <path d="M288.99,103.947L180.751,103.947C164.193,103.947 150.751,117.39 150.751,133.947L150.751,377.947C150.751,394.505 164.193,407.947 180.751,407.947L331.249,407.947C347.807,407.947 361.249,394.505 361.249,377.947L361.249,176.26L288.99,103.947Z"/>
        </clipPath>
        <g clip-path="url(#_clip1)">
            <g transform="matrix(0.144815,0,0,0.110527,252.973,83.7286)">
                <path d="M747.685,485.429C747.685,318.738 647.794,183.406 524.756,183.406L248.705,183.406L248.705,535.156C248.705,701.847 348.596,837.179 471.633,837.179L747.685,837.179L747.685,485.429Z" style="fill:rgb(232,233,238);"/>
            </g>
        </g>
    </g>
    <g transform="matrix(1.67833,0,0,1.67833,-353.344,-142.03)">
        <path d="M363.921,239.998C358.726,239.998 354.282,239.048 350.587,237.147C346.891,235.247 344.094,232.597 342.193,229.198C340.293,225.798 339.343,221.902 339.343,217.511C339.343,212.992 340.325,208.991 342.288,205.507C344.252,202.023 347.06,199.32 350.713,197.399C354.366,195.477 358.642,194.516 363.541,194.516C368.059,194.516 372.071,195.277 375.576,196.797C379.081,198.317 381.826,200.534 383.811,203.448C385.796,206.362 386.788,209.867 386.788,213.963C386.788,217.004 386.155,219.717 384.888,222.103C383.621,224.489 381.889,226.347 379.693,227.677C377.498,229.008 375.048,229.673 372.345,229.673C370.825,229.673 369.537,229.303 368.481,228.564C367.426,227.825 366.75,226.78 366.454,225.429C365.568,226.696 364.406,227.72 362.97,228.501C361.535,229.282 359.93,229.673 358.156,229.673C355.538,229.673 353.511,228.86 352.075,227.234C350.639,225.608 349.921,223.402 349.921,220.614C349.921,217.616 350.502,214.871 351.663,212.38C352.825,209.888 354.429,207.924 356.478,206.489C358.526,205.053 360.817,204.335 363.351,204.335C364.786,204.335 366.053,204.683 367.151,205.38C368.249,206.077 369.052,206.995 369.558,208.136L370.509,205.348L375.639,205.348L370.572,222.071C370.445,222.451 370.382,222.81 370.382,223.148C370.382,224.162 371.079,224.669 372.472,224.669C373.866,224.669 375.154,224.246 376.336,223.402C377.519,222.557 378.458,221.322 379.155,219.696C379.852,218.07 380.2,216.138 380.2,213.9C380.2,209.086 378.691,205.591 375.671,203.416C372.652,201.242 368.608,200.154 363.541,200.154C357.882,200.154 353.543,201.674 350.523,204.715C347.504,207.755 345.994,212.021 345.994,217.511C345.994,222.874 347.514,227.002 350.555,229.894C353.595,232.787 358.051,234.234 363.921,234.234C369.03,234.234 373.19,233.199 376.4,231.13C376.991,230.792 377.561,230.623 378.11,230.623C378.828,230.623 379.535,230.876 380.232,231.383C380.929,231.89 381.53,232.566 382.037,233.41C379.799,235.691 377.107,237.359 373.961,238.414C370.815,239.47 367.468,239.998 363.921,239.998ZM359.296,224.859C360.606,224.859 361.809,224.288 362.907,223.148C364.005,222.008 364.881,220.509 365.536,218.651C366.19,216.793 366.518,214.892 366.518,212.95C366.518,210.416 365.42,209.149 363.224,209.149C361.872,209.149 360.606,209.677 359.423,210.733C358.241,211.788 357.312,213.193 356.636,214.945C355.96,216.698 355.622,218.609 355.622,220.678C355.622,222.156 355.929,223.222 356.541,223.877C357.153,224.531 358.072,224.859 359.296,224.859Z" style="fill:rgb(255,105,105);fill-rule:nonzero;"/>
    </g>
    <g transform="matrix(2.30696e-17,0.376755,-0.649234,3.97541e-17,532.108,128.662)">
        <path d="M404.302,440.748C402.06,440.748 399.91,440.231 398.325,439.311C396.74,438.391 395.849,437.143 395.849,435.842C395.849,430.059 395.849,420.505 395.849,414.722C395.849,413.421 396.74,412.174 398.325,411.254C399.91,410.334 402.06,409.817 404.302,409.817C429.391,409.817 501.694,409.817 501.694,409.817L501.694,391.593C501.694,389.688 503.594,387.955 506.568,387.149C509.542,386.343 513.052,386.608 515.57,387.83C534.982,397.252 569.59,414.048 584.984,421.519C586.905,422.452 588.014,423.83 588.014,425.282C588.014,426.735 586.905,428.113 584.984,429.045C569.59,436.517 534.982,453.313 515.57,462.734C513.052,463.957 509.542,464.222 506.568,463.416C503.594,462.609 501.694,460.877 501.694,458.972C501.694,450.768 501.694,440.748 501.694,440.748L404.302,440.748Z" style="fill:rgb(255,105,105);"/>
    </g>
</svg>
