<?xml version="1.0" encoding="UTF-8" standalone="no"?>
<!DOCTYPE svg PUBLIC "-//W3C//DTD SVG 1.1//EN" "http://www.w3.org/Graphics/SVG/1.1/DTD/svg11.dtd">
<svg width="100%" height="100%" viewBox="0 0 512 512" version="1.1" xmlns="http://www.w3.org/2000/svg" xmlns:xlink="http://www.w3.org/1999/xlink" xml:space="preserve" xmlns:serif="http://www.serif.com/" style="fill-rule:evenodd;clip-rule:evenodd;stroke-linejoin:round;stroke-miterlimit:2;">
    <path d="M327.712,13.802L424.357,107.335C433.903,116.574 439.293,129.29 439.293,142.576L439.293,461.474C439.293,489.36 415.883,512 387.048,512L124.952,512C96.117,512 72.707,489.36 72.707,461.474L72.707,50.526C72.707,22.64 96.117,0 124.952,0L293.606,-0C306.335,-0 318.565,4.949 327.712,13.802ZM252.865,256.268C262.263,256.268 271.13,254.87 279.466,252.073C287.801,249.275 294.934,244.856 300.864,238.814C299.522,236.576 297.927,234.786 296.081,233.443C294.235,232.101 292.361,231.429 290.459,231.429C289.004,231.429 287.494,231.877 285.927,232.772C277.424,238.254 266.403,240.996 252.865,240.996C237.312,240.996 225.508,237.164 217.452,229.499C209.396,221.835 205.368,210.898 205.368,196.688C205.368,182.143 209.368,170.842 217.368,162.786C225.368,154.73 236.865,150.703 251.858,150.703C265.284,150.703 275.997,153.584 283.997,159.346C291.997,165.108 295.997,174.367 295.997,187.122C295.997,193.052 295.074,198.171 293.228,202.478C291.382,206.786 288.892,210.059 285.759,212.297C282.627,214.534 279.214,215.653 275.522,215.653C271.829,215.653 269.983,214.311 269.983,211.625C269.983,210.73 270.151,209.779 270.487,208.772L283.913,164.465L270.319,164.465L267.802,171.849C266.459,168.828 264.333,166.395 261.424,164.549C258.515,162.702 255.158,161.779 251.354,161.779C244.641,161.779 238.571,163.681 233.144,167.486C227.718,171.29 223.466,176.493 220.389,183.094C217.312,189.695 215.774,196.968 215.774,204.912C215.774,212.297 217.676,218.143 221.48,222.45C225.284,226.758 230.655,228.912 237.592,228.912C242.291,228.912 246.543,227.877 250.347,225.807C254.151,223.737 257.228,221.024 259.578,217.667C260.361,221.248 262.151,224.017 264.948,225.975C267.746,227.933 271.158,228.912 275.186,228.912C282.347,228.912 288.836,227.15 294.655,223.625C300.473,220.101 305.06,215.178 308.417,208.856C311.773,202.534 313.452,195.346 313.452,187.29C313.452,176.437 310.822,167.15 305.564,159.43C300.305,151.71 293.032,145.835 283.746,141.807C274.459,137.78 263.83,135.766 251.858,135.766C238.879,135.766 227.55,138.311 217.872,143.402C208.194,148.493 200.753,155.654 195.55,164.884C190.347,174.115 187.746,184.716 187.746,196.688C187.746,208.325 190.264,218.646 195.298,227.653C200.333,236.66 207.746,243.681 217.536,248.716C227.326,253.751 239.102,256.268 252.865,256.268ZM240.613,216.157C237.368,216.157 234.935,215.29 233.312,213.555C231.69,211.821 230.879,208.996 230.879,205.08C230.879,199.597 231.774,194.534 233.564,189.891C235.354,185.248 237.816,181.528 240.949,178.73C244.081,175.933 247.438,174.535 251.018,174.535C256.837,174.535 259.746,177.891 259.746,184.604C259.746,189.751 258.879,194.786 257.144,199.709C255.41,204.632 253.088,208.604 250.179,211.625C247.27,214.646 244.081,216.157 240.613,216.157ZM234.748,302.445L234.748,359.204L218.566,359.204C216.161,359.204 213.973,360.597 212.955,362.776C211.936,364.955 212.272,367.526 213.815,369.371L245.848,407.673C247.025,409.08 248.765,409.893 250.599,409.893C252.433,409.893 254.173,409.08 255.35,407.673L287.383,369.371C288.926,367.526 289.261,364.955 288.243,362.776C287.225,360.597 285.037,359.204 282.632,359.204L266.449,359.204L266.449,302.445C266.449,300.803 265.797,299.227 264.635,298.066C263.474,296.904 261.898,296.252 260.256,296.252L240.942,296.252C239.299,296.252 237.724,296.904 236.562,298.066C235.401,299.227 234.748,300.803 234.748,302.445Z" style="fill:white;"/>
    <clipPath id="_clip1">
        <path d="M327.712,13.802L424.357,107.335C433.903,116.574 439.293,129.29 439.293,142.576L439.293,461.474C439.293,489.36 415.883,512 387.048,512L124.952,512C96.117,512 72.707,489.36 72.707,461.474L72.707,50.526C72.707,22.64 96.117,0 124.952,0L293.606,-0C306.335,-0 318.565,4.949 327.712,13.802ZM252.865,256.268C262.263,256.268 271.13,254.87 279.466,252.073C287.801,249.275 294.934,244.856 300.864,238.814C299.522,236.576 297.927,234.786 296.081,233.443C294.235,232.101 292.361,231.429 290.459,231.429C289.004,231.429 287.494,231.877 285.927,232.772C277.424,238.254 266.403,240.996 252.865,240.996C237.312,240.996 225.508,237.164 217.452,229.499C209.396,221.835 205.368,210.898 205.368,196.688C205.368,182.143 209.368,170.842 217.368,162.786C225.368,154.73 236.865,150.703 251.858,150.703C265.284,150.703 275.997,153.584 283.997,159.346C291.997,165.108 295.997,174.367 295.997,187.122C295.997,193.052 295.074,198.171 293.228,202.478C291.382,206.786 288.892,210.059 285.759,212.297C282.627,214.534 279.214,215.653 275.522,215.653C271.829,215.653 269.983,214.311 269.983,211.625C269.983,210.73 270.151,209.779 270.487,208.772L283.913,164.465L270.319,164.465L267.802,171.849C266.459,168.828 264.333,166.395 261.424,164.549C258.515,162.702 255.158,161.779 251.354,161.779C244.641,161.779 238.571,163.681 233.144,167.486C227.718,171.29 223.466,176.493 220.389,183.094C217.312,189.695 215.774,196.968 215.774,204.912C215.774,212.297 217.676,218.143 221.48,222.45C225.284,226.758 230.655,228.912 237.592,228.912C242.291,228.912 246.543,227.877 250.347,225.807C254.151,223.737 257.228,221.024 259.578,217.667C260.361,221.248 262.151,224.017 264.948,225.975C267.746,227.933 271.158,228.912 275.186,228.912C282.347,228.912 288.836,227.15 294.655,223.625C300.473,220.101 305.06,215.178 308.417,208.856C311.773,202.534 313.452,195.346 313.452,187.29C313.452,176.437 310.822,167.15 305.564,159.43C300.305,151.71 293.032,145.835 283.746,141.807C274.459,137.78 263.83,135.766 251.858,135.766C238.879,135.766 227.55,138.311 217.872,143.402C208.194,148.493 200.753,155.654 195.55,164.884C190.347,174.115 187.746,184.716 187.746,196.688C187.746,208.325 190.264,218.646 195.298,227.653C200.333,236.66 207.746,243.681 217.536,248.716C227.326,253.751 239.102,256.268 252.865,256.268ZM240.613,216.157C237.368,216.157 234.935,215.29 233.312,213.555C231.69,211.821 230.879,208.996 230.879,205.08C230.879,199.597 231.774,194.534 233.564,189.891C235.354,185.248 237.816,181.528 240.949,178.73C244.081,175.933 247.438,174.535 251.018,174.535C256.837,174.535 259.746,177.891 259.746,184.604C259.746,189.751 258.879,194.786 257.144,199.709C255.41,204.632 253.088,208.604 250.179,211.625C247.27,214.646 244.081,216.157 240.613,216.157ZM234.748,302.445L234.748,359.204L218.566,359.204C216.161,359.204 213.973,360.597 212.955,362.776C211.936,364.955 212.272,367.526 213.815,369.371L245.848,407.673C247.025,409.08 248.765,409.893 250.599,409.893C252.433,409.893 254.173,409.08 255.35,407.673L287.383,369.371C288.926,367.526 289.261,364.955 288.243,362.776C287.225,360.597 285.037,359.204 282.632,359.204L266.449,359.204L266.449,302.445C266.449,300.803 265.797,299.227 264.635,298.066C263.474,296.904 261.898,296.252 260.256,296.252L240.942,296.252C239.299,296.252 237.724,296.904 236.562,298.066C235.401,299.227 234.748,300.803 234.748,302.445Z"/>
    </clipPath>
    <g clip-path="url(#_clip1)">
        <g transform="matrix(0.252197,0,0,0.186152,250.729,-34.0524)">
            <path d="M747.685,344.565C747.685,255.619 694.383,183.406 628.73,183.406L248.705,183.406L248.705,676.02C248.705,764.966 302.006,837.179 367.659,837.179L747.685,837.179L747.685,344.565Z" style="fill:white;"/>
        </g>
    </g>
</svg>
