<?xml version="1.0" encoding="UTF-8" standalone="no"?>
<!DOCTYPE svg PUBLIC "-//W3C//DTD SVG 1.1//EN" "http://www.w3.org/Graphics/SVG/1.1/DTD/svg11.dtd">
<svg width="100%" height="100%" viewBox="0 0 4000 4000" version="1.1" xmlns="http://www.w3.org/2000/svg" xmlns:xlink="http://www.w3.org/1999/xlink" xml:space="preserve" xmlns:serif="http://www.serif.com/" style="fill-rule:evenodd;clip-rule:evenodd;stroke-linejoin:round;stroke-miterlimit:2;">
    <g transform="matrix(1.08248,0,0,1.04451,-329.916,-149.941)">
        <path d="M4000,1141.27C4000,924.358 3830.07,748.251 3620.76,748.251L684.014,748.251C474.708,748.251 304.778,924.358 304.778,1141.27L304.778,2975.36C304.778,3192.28 474.708,3368.38 684.014,3368.38L3620.76,3368.38C3830.07,3368.38 4000,3192.28 4000,2975.36L4000,1141.27Z" style="fill:rgb(159,138,233);"/>
        <clipPath id="_clip1">
            <path d="M4000,1141.27C4000,924.358 3830.07,748.251 3620.76,748.251L684.014,748.251C474.708,748.251 304.778,924.358 304.778,1141.27L304.778,2975.36C304.778,3192.28 474.708,3368.38 684.014,3368.38L3620.76,3368.38C3830.07,3368.38 4000,3192.28 4000,2975.36L4000,1141.27Z"/>
        </clipPath>
        <g clip-path="url(#_clip1)">
            <g transform="matrix(0.923805,-2.62947e-18,2.53725e-18,-0.978854,304.778,3121.23)">
                <path d="M1750.9,854.889C1891.85,728.555 2108.15,728.555 2249.1,854.889C2785.15,1335.36 4000,2424.24 4000,2424.24L-0,2424.24C-0,2424.24 1214.85,1335.36 1750.9,854.889Z" style="fill:rgb(146,125,217);"/>
            </g>
        </g>
    </g>
</svg>
