<?xml version="1.0" encoding="UTF-8" standalone="no"?>
<!DOCTYPE svg PUBLIC "-//W3C//DTD SVG 1.1//EN" "http://www.w3.org/Graphics/SVG/1.1/DTD/svg11.dtd">
<svg width="100%" height="100%" viewBox="0 0 512 512" version="1.1" xmlns="http://www.w3.org/2000/svg" xmlns:xlink="http://www.w3.org/1999/xlink" xml:space="preserve" xmlns:serif="http://www.serif.com/" style="fill-rule:evenodd;clip-rule:evenodd;stroke-linejoin:round;stroke-miterlimit:2;">
    <path d="M327.712,13.802L424.357,107.335C433.903,116.574 439.293,129.29 439.293,142.576L439.293,461.474C439.293,489.36 415.883,512 387.048,512L124.952,512C96.117,512 72.707,489.36 72.707,461.474L72.707,50.526C72.707,22.64 96.117,0 124.952,0L293.606,-0C306.335,-0 318.565,4.949 327.712,13.802ZM143.449,215.828C140.852,218.453 140.784,222.657 143.294,225.365C146.765,229.135 151.615,234.367 155.221,238.256C156.494,239.63 158.27,240.428 160.143,240.468C162.015,240.507 163.824,239.786 165.155,238.468C216.644,188.188 295.334,188.188 346.841,238.451C348.167,239.764 349.969,240.483 351.835,240.444C353.701,240.404 355.471,239.609 356.74,238.24C360.365,234.366 365.217,229.132 368.701,225.373C371.217,222.66 371.15,218.447 368.55,215.815C305.165,152.461 206.917,152.461 143.449,215.828ZM229.507,307.458C228.019,308.64 227.092,310.39 226.948,312.285C226.804,314.181 227.456,316.05 228.749,317.444C234.605,323.888 244.803,334.888 250.92,341.486C252.228,342.897 254.065,343.699 255.989,343.699C257.913,343.699 259.751,342.897 261.059,341.486L283.305,317.489C284.612,316.079 285.273,314.189 285.13,312.272C284.986,310.355 284.051,308.585 282.548,307.386C266.781,295.103 245.288,295.105 229.507,307.458ZM186.203,261.729C183.515,264.332 183.399,268.607 185.944,271.352C189.437,275.165 194.324,280.437 197.925,284.322C200.517,287.116 204.881,287.286 207.682,284.702C235.54,259.432 276.438,259.432 304.327,284.669C307.11,287.236 311.445,287.066 314.019,284.29C317.656,280.435 322.546,275.16 326.063,271.367C328.617,268.612 328.504,264.322 325.808,261.706C286.055,223.811 226.025,223.811 186.203,261.729Z" style="fill:white;"/>
    <clipPath id="_clip1">
        <path d="M327.712,13.802L424.357,107.335C433.903,116.574 439.293,129.29 439.293,142.576L439.293,461.474C439.293,489.36 415.883,512 387.048,512L124.952,512C96.117,512 72.707,489.36 72.707,461.474L72.707,50.526C72.707,22.64 96.117,0 124.952,0L293.606,-0C306.335,-0 318.565,4.949 327.712,13.802ZM143.449,215.828C140.852,218.453 140.784,222.657 143.294,225.365C146.765,229.135 151.615,234.367 155.221,238.256C156.494,239.63 158.27,240.428 160.143,240.468C162.015,240.507 163.824,239.786 165.155,238.468C216.644,188.188 295.334,188.188 346.841,238.451C348.167,239.764 349.969,240.483 351.835,240.444C353.701,240.404 355.471,239.609 356.74,238.24C360.365,234.366 365.217,229.132 368.701,225.373C371.217,222.66 371.15,218.447 368.55,215.815C305.165,152.461 206.917,152.461 143.449,215.828ZM229.507,307.458C228.019,308.64 227.092,310.39 226.948,312.285C226.804,314.181 227.456,316.05 228.749,317.444C234.605,323.888 244.803,334.888 250.92,341.486C252.228,342.897 254.065,343.699 255.989,343.699C257.913,343.699 259.751,342.897 261.059,341.486L283.305,317.489C284.612,316.079 285.273,314.189 285.13,312.272C284.986,310.355 284.051,308.585 282.548,307.386C266.781,295.103 245.288,295.105 229.507,307.458ZM186.203,261.729C183.515,264.332 183.399,268.607 185.944,271.352C189.437,275.165 194.324,280.437 197.925,284.322C200.517,287.116 204.881,287.286 207.682,284.702C235.54,259.432 276.438,259.432 304.327,284.669C307.11,287.236 311.445,287.066 314.019,284.29C317.656,280.435 322.546,275.16 326.063,271.367C328.617,268.612 328.504,264.322 325.808,261.706C286.055,223.811 226.025,223.811 186.203,261.729Z"/>
    </clipPath>
    <g clip-path="url(#_clip1)">
        <g transform="matrix(0.252197,0,0,0.186152,250.729,-34.0524)">
            <path d="M747.685,344.565C747.685,255.619 694.383,183.406 628.73,183.406L248.705,183.406L248.705,676.02C248.705,764.966 302.006,837.179 367.659,837.179L747.685,837.179L747.685,344.565Z" style="fill:white;"/>
        </g>
    </g>
</svg>
