<?xml version="1.0" encoding="UTF-8" standalone="no"?>
<!DOCTYPE svg PUBLIC "-//W3C//DTD SVG 1.1//EN" "http://www.w3.org/Graphics/SVG/1.1/DTD/svg11.dtd">
<svg width="100%" height="100%" viewBox="0 0 512 512" version="1.1" xmlns="http://www.w3.org/2000/svg" xmlns:xlink="http://www.w3.org/1999/xlink" xml:space="preserve" xmlns:serif="http://www.serif.com/" style="fill-rule:evenodd;clip-rule:evenodd;stroke-linejoin:round;stroke-miterlimit:2;">
    <g transform="matrix(1.06498,0,0,1.06498,-33.27,7.14522)">
        <path d="M512,89.443C512,36.375 468.916,-6.709 415.848,-6.709L127.392,-6.709C74.324,-6.709 31.24,36.375 31.24,89.443L31.24,377.899C31.24,430.967 74.324,474.051 127.392,474.051L415.848,474.051C468.916,474.051 512,430.967 512,377.899L512,89.443Z" style="fill:rgb(91,93,213);"/>
    </g>
    <g transform="matrix(0.929268,0,0,0.898693,18.1074,25.9822)">
        <path d="M288.99,103.947L180.751,103.947C164.193,103.947 150.751,117.39 150.751,133.947L150.751,377.947C150.751,394.505 164.193,407.947 180.751,407.947L331.249,407.947C347.807,407.947 361.249,394.505 361.249,377.947L361.249,176.26L288.99,103.947Z" style="fill:white;"/>
        <clipPath id="_clip1">
            <path d="M288.99,103.947L180.751,103.947C164.193,103.947 150.751,117.39 150.751,133.947L150.751,377.947C150.751,394.505 164.193,407.947 180.751,407.947L331.249,407.947C347.807,407.947 361.249,394.505 361.249,377.947L361.249,176.26L288.99,103.947Z"/>
        </clipPath>
        <g clip-path="url(#_clip1)">
            <g transform="matrix(0.144815,0,0,0.110527,252.973,83.7286)">
                <path d="M747.685,485.429C747.685,318.738 647.794,183.406 524.756,183.406L248.705,183.406L248.705,535.156C248.705,701.847 348.596,837.179 471.633,837.179L747.685,837.179L747.685,485.429Z" style="fill:rgb(232,233,238);"/>
            </g>
        </g>
    </g>
    <g id="wifi.svg" transform="matrix(6.01761,0,0,6.01761,256,256)">
        <g transform="matrix(1,0,0,1,-12,-12)">
            <rect x="0" y="0" width="24" height="24" style="fill:none;fill-rule:nonzero;"/>
            <path d="M8.788,16.788C8.671,16.905 8.671,17.095 8.788,17.212L11.788,20.212C11.905,20.329 12.095,20.329 12.212,20.212L15.212,17.212C15.329,17.095 15.329,16.906 15.213,16.789C13.446,15.011 10.565,15.01 8.788,16.788ZM4.788,12.788C4.732,12.844 4.7,12.92 4.7,13C4.7,13.079 4.732,13.156 4.788,13.212L6.788,15.212C6.905,15.329 7.095,15.329 7.212,15.212C9.855,12.569 14.145,12.569 16.788,15.212C16.905,15.329 17.095,15.329 17.212,15.212L19.212,13.212C19.329,13.095 19.329,12.905 19.212,12.788C15.235,8.811 8.775,8.811 4.788,12.788ZM0.788,8.788C0.732,8.844 0.7,8.92 0.7,9C0.7,9.079 0.732,9.156 0.788,9.212L2.788,11.212C2.905,11.329 3.095,11.329 3.212,11.212C8.065,6.359 15.935,6.359 20.788,11.212C20.905,11.329 21.095,11.329 21.212,11.212L23.212,9.212C23.329,9.095 23.329,8.905 23.212,8.788C17.025,2.601 6.985,2.601 0.788,8.788Z" style="fill:rgb(91,93,213);fill-rule:nonzero;"/>
        </g>
    </g>
</svg>
