<?xml version="1.0" encoding="UTF-8" standalone="no"?>
<!DOCTYPE svg PUBLIC "-//W3C//DTD SVG 1.1//EN" "http://www.w3.org/Graphics/SVG/1.1/DTD/svg11.dtd">
<svg width="100%" height="100%" viewBox="0 0 1000 1000" version="1.1" xmlns="http://www.w3.org/2000/svg" xmlns:xlink="http://www.w3.org/1999/xlink" xml:space="preserve" xmlns:serif="http://www.serif.com/" style="fill-rule:evenodd;clip-rule:evenodd;stroke-linejoin:round;stroke-miterlimit:2;">
    <path d="M999.998,249.999L999.998,749.999C999.998,887.977 887.976,999.999 749.999,999.999L249.999,999.999C112.021,999.999 0,887.977 0,749.999L0,249.999C0,112.021 112.021,0 249.999,0L749.999,0C887.976,0 999.998,112.021 999.998,249.999ZM780.934,374.928C780.934,366.566 779.358,360.884 776.204,357.877C773.05,354.87 767.221,353.367 758.715,353.367C750.061,353.367 744.12,354.907 740.894,357.986C737.667,361.067 736.054,366.86 736.054,375.367C736.054,383.728 737.631,389.41 740.783,392.417C743.937,395.425 749.768,396.927 758.274,396.927C766.928,396.927 772.867,395.387 776.095,392.308C779.321,389.227 780.934,383.434 780.934,374.928ZM411.667,518.59C411.667,515.949 411.483,513.64 411.118,511.66C410.751,509.68 410.164,508.03 409.357,506.71C408.551,505.389 407.67,504.437 406.718,503.85C405.764,503.262 404.7,502.969 403.528,502.969L331.146,502.969L331.146,422.887C331.146,421.715 330.852,420.651 330.265,419.697C329.68,418.745 328.763,417.938 327.516,417.278C326.27,416.618 324.619,416.104 322.566,415.738C320.513,415.371 317.946,415.188 314.865,415.188C311.933,415.188 309.402,415.371 307.275,415.738C305.148,416.104 303.462,416.618 302.216,417.278C300.968,417.938 300.052,418.745 299.466,419.697C298.879,420.651 298.585,421.715 298.585,422.887L298.585,502.969L226.204,502.969C225.031,502.969 223.968,503.262 223.014,503.85C222.061,504.437 221.218,505.389 220.484,506.71C219.75,508.03 219.165,509.68 218.724,511.66C218.284,513.64 218.064,515.949 218.064,518.59C218.064,521.377 218.284,523.76 218.724,525.739C219.165,527.721 219.75,529.37 220.484,530.691C221.218,532.01 222.061,532.964 223.014,533.55C223.968,534.137 225.104,534.43 226.424,534.43L298.585,534.43L298.585,614.512C298.585,615.685 298.879,616.675 299.466,617.482C300.052,618.289 300.968,618.985 302.216,619.572C303.462,620.158 305.148,620.636 307.275,621.001C309.402,621.368 311.933,621.552 314.865,621.552C317.946,621.552 320.513,621.368 322.566,621.001C324.619,620.636 326.27,620.158 327.516,619.572C328.763,618.985 329.68,618.289 330.265,617.482C330.852,616.675 331.146,615.685 331.146,614.512L331.146,534.43L403.307,534.43C404.48,534.43 405.581,534.137 406.607,533.55C407.634,532.964 408.513,532.01 409.247,530.691C409.981,529.37 410.567,527.721 411.007,525.739C411.447,523.76 411.667,521.377 411.667,518.59ZM776.754,639.812L776.754,441.809C776.754,440.781 776.46,439.829 775.875,438.948C775.288,438.068 774.334,437.335 773.014,436.748C771.695,436.161 769.86,435.722 767.513,435.429C765.168,435.135 762.161,434.988 758.494,434.988C754.974,434.988 752.041,435.135 749.694,435.429C747.347,435.722 745.477,436.161 744.084,436.748C742.69,437.335 741.737,438.068 741.224,438.948C740.71,439.829 740.454,440.781 740.454,441.809L740.454,639.812C740.454,640.986 740.71,641.976 741.224,642.782C741.737,643.589 742.69,644.285 744.084,644.872C745.477,645.46 747.347,645.898 749.694,646.192C752.041,646.486 754.974,646.632 758.494,646.632C762.161,646.632 765.168,646.486 767.513,646.192C769.86,645.898 771.695,645.46 773.014,644.872C774.334,644.285 775.288,643.589 775.875,642.782C776.46,641.976 776.754,640.986 776.754,639.812ZM655.662,518.59C655.662,515.949 655.478,513.64 655.111,511.66C654.746,509.68 654.159,508.03 653.351,506.71C652.546,505.389 651.665,504.437 650.711,503.85C649.758,503.262 648.695,502.969 647.521,502.969L575.141,502.969L575.141,422.887C575.141,421.715 574.847,420.651 574.26,419.697C573.673,418.745 572.757,417.938 571.51,417.278C570.264,416.618 568.614,416.104 566.561,415.738C564.507,415.371 561.94,415.188 558.86,415.188C555.927,415.188 553.396,415.371 551.27,415.738C549.143,416.104 547.457,416.618 546.211,417.278C544.963,417.938 544.047,418.745 543.459,419.697C542.874,420.651 542.58,421.715 542.58,422.887L542.58,502.969L470.199,502.969C469.026,502.969 467.963,503.262 467.009,503.85C466.056,504.437 465.213,505.389 464.479,506.71C463.745,508.03 463.158,509.68 462.719,511.66C462.279,513.64 462.059,515.949 462.059,518.59C462.059,521.377 462.279,523.76 462.719,525.739C463.158,527.721 463.745,529.37 464.479,530.691C465.213,532.01 466.056,532.964 467.009,533.55C467.963,534.137 469.099,534.43 470.419,534.43L542.58,534.43L542.58,614.512C542.58,615.685 542.874,616.675 543.459,617.482C544.047,618.289 544.963,618.985 546.211,619.572C547.457,620.158 549.143,620.636 551.27,621.001C553.396,621.368 555.927,621.552 558.86,621.552C561.94,621.552 564.507,621.368 566.561,621.001C568.614,620.636 570.264,620.158 571.51,619.572C572.757,618.985 573.673,618.289 574.26,617.482C574.847,616.675 575.141,615.685 575.141,614.512L575.141,534.43L647.301,534.43C648.475,534.43 649.574,534.137 650.602,533.55C651.628,532.964 652.508,532.01 653.242,530.691C653.975,529.37 654.562,527.721 655.002,525.739C655.442,523.76 655.662,521.377 655.662,518.59Z" style="fill:white;"/>
</svg>
