<?xml version="1.0" encoding="UTF-8" standalone="no"?>
<!DOCTYPE svg PUBLIC "-//W3C//DTD SVG 1.1//EN" "http://www.w3.org/Graphics/SVG/1.1/DTD/svg11.dtd">
<svg width="100%" height="100%" viewBox="0 0 1280 1280" version="1.1" xmlns="http://www.w3.org/2000/svg" xmlns:xlink="http://www.w3.org/1999/xlink" xml:space="preserve" xmlns:serif="http://www.serif.com/" style="fill-rule:evenodd;clip-rule:evenodd;stroke-linecap:round;stroke-linejoin:round;stroke-miterlimit:1.5;">
    <g id="Layer1">
        <g transform="matrix(0.88688,0,0,0.88688,53.4908,65.5528)">
            <circle cx="661.317" cy="647.717" r="576.072" style="fill:none;stroke:white;stroke-width:90.2px;"/>
        </g>
        <g transform="matrix(0.505807,0,0,0.866071,305.501,78.5275)">
            <path d="M661.317,71.645C926.364,71.645 1149.84,251.029 1216.87,494.909C1230.25,543.581 933.954,506.814 933.954,506.814C933.954,506.814 1230.81,747.751 1218.44,794.672C1153.41,1041.53 928.48,1223.79 661.317,1223.79C398.656,1223.79 176.816,1047.62 107.614,807.094C93.049,756.471 410.586,505.589 410.586,505.589C410.586,505.589 91.724,548.478 103.893,501.899C168.535,254.464 393.745,71.645 661.317,71.645Z" style="fill:none;stroke:white;stroke-width:77.55px;"/>
        </g>
        <g transform="matrix(0.713212,0,0,1.09742,176.67,-1.09258)">
            <path d="M616.029,534.358L616.029,129.093L687.644,129.093L687.644,554.28L675.886,503.628L623.392,503.628L616.029,534.358ZM687.644,664.733L687.644,1038.35L616.029,1038.35L616.029,664.733L620.475,664.733L648.91,524.477L650.368,524.477L678.438,664.733L687.644,664.733Z" style="fill:white;"/>
        </g>
        <g transform="matrix(1.02497,0,0,0.928906,5.27884,41.3126)">
            <path d="M1190.01,519.507L1190.01,769.509C1190.01,797.739 1169.24,820.659 1143.65,820.659L94.867,820.659C69.282,820.659 48.511,797.739 48.511,769.509L48.511,519.507C48.511,491.276 69.282,468.356 94.867,468.356L1143.65,468.356C1169.24,468.356 1190.01,491.276 1190.01,519.507ZM544.936,549.342L565.483,739.673L598.967,739.673L618.753,573.973L619.767,573.973L639.3,739.673L673.037,739.673L693.584,549.342L665.681,549.342L655.534,699.088L655.281,699.088L653.251,664.381L637.524,549.342L600.996,549.342L584.761,664.381L582.986,699.088L582.732,699.088L572.839,549.342L544.936,549.342ZM189.802,549.342L210.349,739.673L243.833,739.673L263.619,573.973L264.634,573.973L284.166,739.673L317.904,739.673L338.451,549.342L310.548,549.342L300.401,699.088L300.147,699.088L298.118,664.381L282.391,549.342L245.863,549.342L229.628,664.381L227.852,699.088L227.599,699.088L217.706,549.342L189.802,549.342ZM900.069,549.342L920.616,739.673L954.1,739.673L973.886,573.973L974.9,573.973L994.433,739.673L1028.17,739.673L1048.72,549.342L1020.81,549.342L1010.67,699.088L1010.41,699.088L1008.38,664.381L992.657,549.342L956.129,549.342L939.894,664.381L938.119,699.088L937.865,699.088L927.972,549.342L900.069,549.342Z" style="fill:white;"/>
        </g>
    </g>
</svg>
