<?xml version="1.0" encoding="UTF-8" standalone="no"?>
<!DOCTYPE svg PUBLIC "-//W3C//DTD SVG 1.1//EN" "http://www.w3.org/Graphics/SVG/1.1/DTD/svg11.dtd">
<svg width="100%" height="100%" viewBox="0 0 1000 1000" version="1.1" xmlns="http://www.w3.org/2000/svg" xmlns:xlink="http://www.w3.org/1999/xlink" xml:space="preserve" xmlns:serif="http://www.serif.com/" style="fill-rule:evenodd;clip-rule:evenodd;stroke-linejoin:round;stroke-miterlimit:2;">
    <g transform="matrix(1.06073,0,0,1.0665,0,0)">
        <path d="M942.745,234.411C942.745,105.036 837.137,0 707.059,0L235.686,0C105.607,0 0,105.036 0,234.411L0,703.234C0,832.609 105.607,937.646 235.686,937.646L707.059,937.646C837.137,937.646 942.745,832.609 942.745,703.234L942.745,234.411Z" style="fill:rgb(21,22,23);"/>
        <clipPath id="_clip1">
            <path d="M942.745,234.411C942.745,105.036 837.137,0 707.059,0L235.686,0C105.607,0 0,105.036 0,234.411L0,703.234C0,832.609 105.607,937.646 235.686,937.646L707.059,937.646C837.137,937.646 942.745,832.609 942.745,703.234L942.745,234.411Z"/>
        </clipPath>
        <g clip-path="url(#_clip1)">
            <g transform="matrix(1.21363,0,0,1.20707,-10.7954,-21.672)">
                <path d="M349.271,420.793C349.271,422.958 349.1,424.809 348.758,426.347C348.416,427.886 347.961,429.167 347.391,430.193C346.821,431.218 346.138,431.959 345.34,432.414C344.543,432.87 343.688,433.098 342.777,433.098L286.722,433.098L286.722,495.305C286.722,496.216 286.494,496.985 286.038,497.612C285.583,498.239 284.871,498.78 283.902,499.236C282.934,499.691 281.652,500.062 280.057,500.346C278.462,500.631 276.468,500.774 274.075,500.774C271.797,500.774 269.831,500.631 268.179,500.346C266.527,500.062 265.217,499.691 264.249,499.236C263.28,498.78 262.568,498.239 262.113,497.612C261.657,496.985 261.429,496.216 261.429,495.305L261.429,433.098L205.374,433.098C204.349,433.098 203.466,432.87 202.725,432.414C201.985,431.959 201.33,431.218 200.76,430.193C200.19,429.167 199.735,427.886 199.393,426.347C199.051,424.809 198.88,422.958 198.88,420.793C198.88,418.742 199.051,416.948 199.393,415.41C199.735,413.872 200.19,412.59 200.76,411.565C201.33,410.539 201.985,409.799 202.725,409.343C203.466,408.887 204.292,408.659 205.203,408.659L261.429,408.659L261.429,346.452C261.429,345.541 261.657,344.715 262.113,343.974C262.568,343.234 263.28,342.607 264.249,342.095C265.217,341.582 266.527,341.183 268.179,340.898C269.831,340.613 271.797,340.471 274.075,340.471C276.468,340.471 278.462,340.613 280.057,340.898C281.652,341.183 282.934,341.582 283.902,342.095C284.871,342.607 285.583,343.234 286.038,343.974C286.494,344.715 286.722,345.541 286.722,346.452L286.722,408.659L342.948,408.659C343.859,408.659 344.685,408.887 345.426,409.343C346.166,409.799 346.85,410.539 347.476,411.565C348.103,412.59 348.559,413.872 348.844,415.41C349.128,416.948 349.271,418.742 349.271,420.793Z" style="fill:white;fill-rule:nonzero;"/>
                <path d="M526.151,420.793C526.151,422.958 525.98,424.809 525.638,426.347C525.296,427.886 524.84,429.167 524.271,430.193C523.701,431.218 523.017,431.959 522.22,432.414C521.422,432.87 520.568,433.098 519.656,433.098L463.602,433.098L463.602,495.305C463.602,496.216 463.374,496.985 462.918,497.612C462.462,498.239 461.75,498.78 460.782,499.236C459.814,499.691 458.532,500.062 456.937,500.346C455.342,500.631 453.348,500.774 450.955,500.774C448.677,500.774 446.711,500.631 445.059,500.346C443.407,500.062 442.097,499.691 441.129,499.236C440.16,498.78 439.448,498.239 438.992,497.612C438.537,496.985 438.309,496.216 438.309,495.305L438.309,433.098L382.254,433.098C381.229,433.098 380.346,432.87 379.605,432.414C378.865,431.959 378.21,431.218 377.64,430.193C377.07,429.167 376.614,427.886 376.273,426.347C375.931,424.809 375.76,422.958 375.76,420.793C375.76,418.742 375.931,416.948 376.273,415.41C376.614,413.872 377.07,412.59 377.64,411.565C378.21,410.539 378.865,409.799 379.605,409.343C380.346,408.887 381.172,408.659 382.083,408.659L438.309,408.659L438.309,346.452C438.309,345.541 438.537,344.715 438.992,343.974C439.448,343.234 440.16,342.607 441.129,342.095C442.097,341.582 443.407,341.183 445.059,340.898C446.711,340.613 448.677,340.471 450.955,340.471C453.348,340.471 455.342,340.613 456.937,340.898C458.532,341.183 459.814,341.582 460.782,342.095C461.75,342.607 462.462,343.234 462.918,343.974C463.374,344.715 463.602,345.541 463.602,346.452L463.602,408.659L519.827,408.659C520.739,408.659 521.565,408.887 522.305,409.343C523.046,409.799 523.73,410.539 524.356,411.565C524.983,412.59 525.439,413.872 525.723,415.41C526.008,416.948 526.151,418.742 526.151,420.793Z" style="fill:white;fill-rule:nonzero;"/>
                <path d="M592.459,514.958C592.459,515.87 592.231,516.639 591.776,517.265C591.32,517.892 590.579,518.433 589.554,518.889C588.529,519.345 587.104,519.686 585.281,519.914C583.459,520.142 581.123,520.256 578.275,520.256C575.54,520.256 573.262,520.142 571.439,519.914C569.616,519.686 568.163,519.345 567.081,518.889C565.998,518.433 565.258,517.892 564.859,517.265C564.46,516.639 564.261,515.87 564.261,514.958L564.261,361.15C564.261,360.352 564.46,359.612 564.859,358.928C565.258,358.244 565.998,357.675 567.081,357.219C568.163,356.763 569.616,356.422 571.439,356.194C573.262,355.966 575.54,355.852 578.275,355.852C581.123,355.852 583.459,355.966 585.281,356.194C587.104,356.422 588.529,356.763 589.554,357.219C590.579,357.675 591.32,358.244 591.776,358.928C592.231,359.612 592.459,360.352 592.459,361.15L592.459,514.958ZM595.706,309.197C595.706,315.805 594.453,320.305 591.947,322.698C589.44,325.09 584.826,326.286 578.104,326.286C571.496,326.286 566.967,325.119 564.517,322.783C562.068,320.447 560.843,316.033 560.843,309.538C560.843,302.93 562.096,298.43 564.603,296.037C567.109,293.645 571.724,292.449 578.446,292.449C585.054,292.449 589.582,293.616 592.032,295.952C594.482,298.288 595.706,302.702 595.706,309.197Z" style="fill:white;fill-rule:nonzero;"/>
            </g>
        </g>
    </g>
</svg>
