<?xml version="1.0" encoding="UTF-8" standalone="no"?>
<!DOCTYPE svg PUBLIC "-//W3C//DTD SVG 1.1//EN" "http://www.w3.org/Graphics/SVG/1.1/DTD/svg11.dtd">
<svg width="100%" height="100%" viewBox="0 0 1280 1280" version="1.1" xmlns="http://www.w3.org/2000/svg" xmlns:xlink="http://www.w3.org/1999/xlink" xml:space="preserve" xmlns:serif="http://www.serif.com/" style="fill-rule:evenodd;clip-rule:evenodd;stroke-linecap:round;stroke-linejoin:round;stroke-miterlimit:1.5;">
    <g id="Layer1" transform="matrix(1.27806,0,0,1.27806,-104.834,263.207)">
        <g transform="matrix(0.868524,0,0,0.880916,32.5621,-212.154)">
            <path d="M1001.3,165.965C1001.3,109.173 954.536,63.065 896.934,63.065L409.884,63.065C352.282,63.065 305.517,109.173 305.517,165.965L305.517,893.061C305.517,949.853 352.282,995.961 409.884,995.961L896.934,995.961C954.536,995.961 1001.3,949.853 1001.3,893.061L1001.3,165.965Z" style="fill:rgb(245,245,245);"/>
        </g>
        <g transform="matrix(1.02186,0,0,0.824581,37.6881,-86.8929)">
            <path d="M1023.49,293.811C1023.49,224.021 977.769,167.361 921.452,167.361L145.428,167.361C89.112,167.361 43.39,224.021 43.39,293.811L43.39,883.913C43.39,953.703 89.112,1010.36 145.428,1010.36L921.452,1010.36C977.769,1010.36 1023.49,953.703 1023.49,883.913L1023.49,293.811Z" style="fill:rgb(147,166,255);"/>
        </g>
        <g transform="matrix(0.785319,0,0,0.90717,82.0262,-269.361)">
            <path d="M493.543,356.472C493.543,298.375 439.056,251.207 371.944,251.207L121.599,251.207C54.487,251.207 0,298.375 0,356.472L0,461.738L432.743,461.738C466.299,461.738 493.543,438.154 493.543,409.105L493.543,356.472Z" style="fill:rgb(147,166,255);"/>
        </g>
        <g transform="matrix(3.49175,0,0,3.49175,-7.99313,-620.702)">
            <circle cx="267.523" cy="282.319" r="12.397" style="fill:rgb(91,91,91);"/>
        </g>
        <g transform="matrix(3.49175,0,0,3.49175,-618.321,-661.486)">
            <circle cx="450.09" cy="285.855" r="5.377" style="fill:white;"/>
        </g>
        <g transform="matrix(3.49175,0,0,3.49175,-697.321,-622.087)">
            <circle cx="267.523" cy="282.319" r="12.397" style="fill:rgb(91,91,91);"/>
        </g>
        <g transform="matrix(3.49175,0,0,3.49175,-1307.65,-662.871)">
            <circle cx="450.09" cy="285.855" r="5.377" style="fill:white;"/>
        </g>
        <g transform="matrix(3.49175,0,0,3.49175,-601.546,-716.802)">
            <path d="M402.902,297.937C402.902,289.317 395.904,282.319 387.285,282.319L291.075,282.319C282.456,282.319 275.458,289.317 275.458,297.937L275.458,323.036C275.458,344.628 292.988,362.158 314.58,362.158L363.78,362.158C385.372,362.158 402.902,344.628 402.902,323.036L402.902,297.937Z" style="fill:rgb(124,144,238);"/>
        </g>
        <g transform="matrix(3.15736,0,0,3.49175,-466.187,-715.154)">
            <path d="M300.252,336.868L321.08,336.868" style="fill:none;stroke:rgb(147,166,255);stroke-width:8.21px;"/>
        </g>
        <g transform="matrix(3.15736,0,0,3.49175,-330.009,-715.154)">
            <path d="M300.252,336.868L321.08,336.868" style="fill:none;stroke:rgb(147,166,255);stroke-width:8.21px;"/>
        </g>
    </g>
</svg>
