<?xml version="1.0" encoding="UTF-8" standalone="no"?>
<!DOCTYPE svg PUBLIC "-//W3C//DTD SVG 1.1//EN" "http://www.w3.org/Graphics/SVG/1.1/DTD/svg11.dtd">
<svg width="100%" height="100%" viewBox="0 0 1280 1280" version="1.1" xmlns="http://www.w3.org/2000/svg" xmlns:xlink="http://www.w3.org/1999/xlink" xml:space="preserve" xmlns:serif="http://www.serif.com/" style="fill-rule:evenodd;clip-rule:evenodd;stroke-linecap:round;stroke-linejoin:round;stroke-miterlimit:1.5;">
    <g id="Layer1" transform="matrix(1.27806,0,0,1.27806,-104.834,263.207)">
        <g transform="matrix(1.02186,0,0,0.824581,37.6881,-86.8929)">
            <path d="M1023.49,293.811C1023.49,224.021 977.769,167.361 921.452,167.361L145.428,167.361C89.112,167.361 43.39,224.021 43.39,293.811L43.39,883.913C43.39,953.703 89.112,1010.36 145.428,1010.36L921.452,1010.36C977.769,1010.36 1023.49,953.703 1023.49,883.913L1023.49,293.811Z" style="fill:rgb(147,166,255);"/>
        </g>
        <g transform="matrix(1.02186,0,0,0.824581,37.6881,-86.8929)">
            <path d="M1023.49,293.811C1023.49,224.021 977.769,167.361 921.452,167.361L145.428,167.361C89.112,167.361 43.39,224.021 43.39,293.811L43.39,883.913C43.39,953.703 89.112,1010.36 145.428,1010.36L921.452,1010.36C977.769,1010.36 1023.49,953.703 1023.49,883.913L1023.49,293.811Z" style="fill:rgb(147,166,255);"/>
        </g>
        <g transform="matrix(0.401317,0,0,1.31415,82.0262,-457.281)">
            <path d="M493.543,326.566C493.543,284.974 382.968,251.207 246.771,251.207C110.575,251.207 0,284.974 0,326.566L0,461.738L370.157,461.738C438.255,461.738 493.543,444.854 493.543,424.058L493.543,326.566Z" style="fill:rgb(147,166,255);"/>
        </g>
        <g transform="matrix(-0.401317,0,0,1.31415,1083.55,-457.281)">
            <path d="M493.543,326.566C493.543,284.974 382.968,251.207 246.771,251.207C110.575,251.207 0,284.974 0,326.566L0,461.738L370.157,461.738C438.255,461.738 493.543,444.854 493.543,424.058L493.543,326.566Z" style="fill:rgb(147,166,255);"/>
        </g>
        <g transform="matrix(3.49175,0,0,3.49175,-7.99313,-620.702)">
            <circle cx="267.523" cy="282.319" r="12.397" style="fill:rgb(75,75,75);"/>
        </g>
        <g transform="matrix(3.49175,0,0,3.49175,-618.321,-661.486)">
            <circle cx="450.09" cy="285.855" r="5.377" style="fill:white;"/>
        </g>
        <g transform="matrix(3.49175,0,0,3.49175,-697.321,-622.087)">
            <circle cx="267.523" cy="282.319" r="12.397" style="fill:rgb(75,75,75);"/>
        </g>
        <g transform="matrix(3.49175,0,0,3.49175,-1307.65,-662.871)">
            <circle cx="450.09" cy="285.855" r="5.377" style="fill:white;"/>
        </g>
        <g transform="matrix(3.49175,0,0,3.49175,-601.546,-716.802)">
            <path d="M402.902,297.937C402.902,289.317 395.904,282.319 387.285,282.319L291.075,282.319C282.456,282.319 275.458,289.317 275.458,297.937L275.458,323.036C275.458,344.628 292.988,362.158 314.58,362.158L363.78,362.158C385.372,362.158 402.902,344.628 402.902,323.036L402.902,297.937Z" style="fill:rgb(124,144,238);"/>
        </g>
        <g transform="matrix(3.15736,0,0,3.49175,-466.187,-715.154)">
            <path d="M300.252,336.868L321.08,336.868" style="fill:none;stroke:rgb(147,166,255);stroke-width:8.21px;"/>
        </g>
        <g transform="matrix(3.15736,0,0,3.49175,-330.009,-715.154)">
            <path d="M300.252,336.868L321.08,336.868" style="fill:none;stroke:rgb(147,166,255);stroke-width:8.21px;"/>
        </g>
    </g>
</svg>
