<?xml version="1.0" encoding="UTF-8" standalone="no"?>
<!DOCTYPE svg PUBLIC "-//W3C//DTD SVG 1.1//EN" "http://www.w3.org/Graphics/SVG/1.1/DTD/svg11.dtd">
<svg width="100%" height="100%" viewBox="0 0 1280 1280" version="1.1" xmlns="http://www.w3.org/2000/svg" xmlns:xlink="http://www.w3.org/1999/xlink" xml:space="preserve" xmlns:serif="http://www.serif.com/" style="fill-rule:evenodd;clip-rule:evenodd;stroke-linejoin:round;stroke-miterlimit:2;">
    <g id="logo" transform="matrix(1.09067,0,0,1.09067,-28.3363,285.042)">
        <g transform="matrix(3.6931,0,0,3.31991,-547.396,-592.06)">
            <rect x="255.206" y="222.66" width="117.879" height="227.423" style="fill:rgb(134,215,129);"/>
        </g>
        <g transform="matrix(3.70557,0,0,3.70557,-728.045,-621.677)">
            <rect x="349.468" y="254.008" width="24.741" height="20.639" style="fill:rgb(235,235,235);"/>
        </g>
        <g transform="matrix(3.27544,0,0,3.27544,-567.423,-495.48)">
            <circle cx="360.317" cy="260.511" r="7.693" style="fill:rgb(92,92,92);"/>
        </g>
        <g transform="matrix(3.70557,0,0,4.77672,-720.45,-722.043)">
            <rect x="315.535" y="96.447" width="88.509" height="101.606" style="fill:rgb(235,235,235);"/>
        </g>
        <g transform="matrix(5.69553,0,0,4.77185,-1388.6,-921.837)">
            <rect x="326.251" y="240.124" width="10.716" height="17.067" style="fill:rgb(239,239,239);"/>
        </g>
        <g transform="matrix(5.69553,0,0,4.77185,-1313.49,-921.837)">
            <rect x="326.251" y="240.124" width="10.716" height="17.067" style="fill:rgb(239,239,239);"/>
        </g>
        <g transform="matrix(5.69553,0,0,4.77185,-1238.25,-921.837)">
            <rect x="326.251" y="240.124" width="10.716" height="17.067" style="fill:rgb(239,239,239);"/>
        </g>
        <g transform="matrix(5.69553,0,0,4.77185,-1163.23,-921.837)">
            <rect x="326.251" y="240.124" width="10.716" height="17.067" style="fill:rgb(239,239,239);"/>
        </g>
        <g transform="matrix(2.19999,0,0,3.70557,-221.897,-630.501)">
            <rect x="328.785" y="134.145" width="25.323" height="12.304" style="fill:rgb(92,92,92);"/>
        </g>
        <g transform="matrix(2.19999,0,0,3.70557,-54.9072,-630.501)">
            <rect x="328.785" y="134.145" width="25.323" height="12.304" style="fill:rgb(92,92,92);"/>
        </g>
        <g transform="matrix(3.70557,0,0,7.55936,-718.244,-2276.08)">
            <rect x="314.94" y="401.926" width="88.509" height="19.845" style="fill:rgb(92,92,92);"/>
            <clipPath id="_clip1">
                <rect x="314.94" y="401.926" width="88.509" height="19.845"/>
            </clipPath>
            <g clip-path="url(#_clip1)">
                <g transform="matrix(1,0,0,0.459558,2.84217e-13,211.344)">
                    <rect x="314.94" y="445.188" width="88.509" height="12.701" style="fill:rgb(75,72,72);"/>
                </g>
            </g>
        </g>
        <g transform="matrix(3.70557,0,0,3.70557,-718.244,-617.264)">
            <path d="M403.448,385.197L398.968,385.197L386.976,377.384L331.386,377.384L319.394,385.197L314.94,385.197L314.94,279.225L403.448,279.225L403.448,385.197Z" style="fill:rgb(235,235,235);"/>
        </g>
        <g transform="matrix(3.94981,0,0,3.70557,-870.821,-598.145)">
            <rect x="328.881" y="253.089" width="11.113" height="9.526" style="fill:white;"/>
        </g>
        <g transform="matrix(2.83965,0,0,2.83965,-363.755,-585.623)">
            <circle cx="283.188" cy="332.072" r="2.778" style="fill:rgb(168,255,162);"/>
        </g>
        <g transform="matrix(2.83965,0,0,2.83965,-344.262,-585.623)">
            <circle cx="283.188" cy="332.072" r="2.778" style="fill:rgb(255,155,145);"/>
        </g>
    </g>
</svg>
