<?xml version="1.0" encoding="UTF-8" standalone="no"?>
<!DOCTYPE svg PUBLIC "-//W3C//DTD SVG 1.1//EN" "http://www.w3.org/Graphics/SVG/1.1/DTD/svg11.dtd">
<svg width="100%" height="100%" viewBox="0 0 4000 4000" version="1.1" xmlns="http://www.w3.org/2000/svg" xmlns:xlink="http://www.w3.org/1999/xlink" xml:space="preserve" xmlns:serif="http://www.serif.com/" style="fill-rule:evenodd;clip-rule:evenodd;stroke-linejoin:round;stroke-miterlimit:2;">
    <g transform="matrix(18.005,0,0,18.005,-4142.66,-2980.49)">
        <path d="M427.697,387.697L254.63,387.697L254.63,165.537L397.655,165.537L427.697,195.579L427.697,387.697Z" style="fill:rgb(123,205,255);"/>
        <clipPath id="_clip1">
            <path d="M427.697,387.697L254.63,387.697L254.63,165.537L397.655,165.537L427.697,195.579L427.697,387.697Z"/>
        </clipPath>
        <g clip-path="url(#_clip1)">
            <path d="M397.655,165.537L397.655,195.579L427.697,195.579L397.655,165.537Z" style="fill:rgb(89,192,255);"/>
            <g transform="matrix(2.27761e-17,0.479685,-0.849515,4.82932e-17,608.878,122.603)">
                <path d="M311.566,330.419L311.566,299.857L417.217,299.857L417.217,271.479L494.536,315.138L417.217,358.797L417.217,330.419L311.566,330.419Z" style="fill:rgb(65,183,255);"/>
            </g>
            <g transform="matrix(0.717173,0,0,0.717173,47.1382,56.3027)">
                <text x="360.384px" y="261.16px" style="font-family:'ArialMT', 'Arial', sans-serif;font-size:96px;fill:rgb(65,183,255);">@</text>
            </g>
        </g>
    </g>
</svg>
