<?xml version="1.0" encoding="UTF-8" standalone="no"?>
<!DOCTYPE svg PUBLIC "-//W3C//DTD SVG 1.1//EN" "http://www.w3.org/Graphics/SVG/1.1/DTD/svg11.dtd">
<svg width="100%" height="100%" viewBox="0 0 46 46" version="1.1" xmlns="http://www.w3.org/2000/svg" xmlns:xlink="http://www.w3.org/1999/xlink" xml:space="preserve" xmlns:serif="http://www.serif.com/" style="fill-rule:evenodd;clip-rule:evenodd;stroke-linejoin:round;stroke-miterlimit:2;">
    <g transform="matrix(-0.855226,1.04735e-16,-1.04735e-16,-0.855226,43.3099,44.3979)">
        <path d="M18.6,21.2C18.35,21.027 18.052,20.935 17.748,20.935C16.925,20.935 16.248,21.612 16.248,22.435C16.248,22.788 16.373,23.13 16.6,23.4L22.6,29C23.1,29.5 24,29.5 24.6,29L30.6,23.4C31.005,23.12 31.248,22.658 31.248,22.165C31.248,21.343 30.571,20.665 29.748,20.665C29.305,20.665 28.885,20.861 28.6,21.2L23.6,25.8L18.6,21.2Z" style="fill:white;"/>
    </g>
</svg>
