<?xml version="1.0" encoding="UTF-8" standalone="no"?>
<!DOCTYPE svg PUBLIC "-//W3C//DTD SVG 1.1//EN" "http://www.w3.org/Graphics/SVG/1.1/DTD/svg11.dtd">
<svg width="100%" height="100%" viewBox="0 0 1000 1000" version="1.1" xmlns="http://www.w3.org/2000/svg" xmlns:xlink="http://www.w3.org/1999/xlink" xml:space="preserve" xmlns:serif="http://www.serif.com/" style="fill-rule:evenodd;clip-rule:evenodd;stroke-linejoin:round;stroke-miterlimit:2;">
    <path d="M999.998,0L999.998,999.999L-0,999.999L-0,0L999.998,0ZM656.163,518.59C656.163,515.949 655.979,513.64 655.612,511.66C655.247,509.68 654.66,508.03 653.852,506.71C653.047,505.389 652.166,504.437 651.212,503.85C650.26,503.262 649.196,502.969 648.022,502.969L575.642,502.969L575.642,422.887C575.642,421.715 575.348,420.651 574.761,419.697C574.174,418.745 573.258,417.938 572.012,417.278C570.765,416.618 569.115,416.104 567.062,415.738C565.008,415.371 562.441,415.188 559.361,415.188C556.428,415.188 553.897,415.371 551.771,415.738C549.644,416.104 547.958,416.618 546.712,417.278C545.464,417.938 544.548,418.745 543.961,419.697C543.375,420.651 543.081,421.715 543.081,422.887L543.081,502.969L470.7,502.969C469.527,502.969 468.464,503.262 467.51,503.85C466.557,504.437 465.714,505.389 464.98,506.71C464.246,508.03 463.659,509.68 463.22,511.66C462.78,513.64 462.56,515.949 462.56,518.59C462.56,521.377 462.78,523.76 463.22,525.739C463.659,527.721 464.246,529.37 464.98,530.691C465.714,532.01 466.557,532.964 467.51,533.55C468.464,534.137 469.6,534.43 470.92,534.43L543.081,534.43L543.081,614.512C543.081,615.685 543.375,616.675 543.961,617.482C544.548,618.289 545.464,618.985 546.712,619.572C547.958,620.158 549.644,620.636 551.771,621.001C553.897,621.368 556.428,621.552 559.361,621.552C562.441,621.552 565.008,621.368 567.062,621.001C569.115,620.636 570.765,620.158 572.012,619.572C573.258,618.985 574.174,618.289 574.761,617.482C575.348,616.675 575.642,615.685 575.642,614.512L575.642,534.43L647.802,534.43C648.976,534.43 650.075,534.137 651.103,533.55C652.129,532.964 653.009,532.01 653.743,530.691C654.476,529.37 655.063,527.721 655.503,525.739C655.943,523.76 656.163,521.377 656.163,518.59ZM781.435,374.928C781.435,366.566 779.859,360.884 776.705,357.877C773.551,354.87 767.722,353.367 759.216,353.367C750.562,353.367 744.621,354.907 741.395,357.986C738.168,361.067 736.555,366.86 736.555,375.367C736.555,383.728 738.132,389.41 741.284,392.417C744.438,395.425 750.269,396.927 758.775,396.927C767.429,396.927 773.369,395.387 776.596,392.308C779.822,389.227 781.435,383.434 781.435,374.928ZM777.255,639.812L777.255,441.809C777.255,440.781 776.961,439.829 776.376,438.948C775.789,438.068 774.835,437.335 773.515,436.748C772.196,436.161 770.361,435.722 768.014,435.429C765.669,435.135 762.662,434.988 758.995,434.988C755.475,434.988 752.542,435.135 750.195,435.429C747.848,435.722 745.978,436.161 744.585,436.748C743.191,437.335 742.238,438.068 741.725,438.948C741.211,439.829 740.955,440.781 740.955,441.809L740.955,639.812C740.955,640.986 741.211,641.976 741.725,642.782C742.238,643.589 743.191,644.285 744.585,644.872C745.978,645.46 747.848,645.898 750.195,646.192C752.542,646.486 755.475,646.632 758.995,646.632C762.662,646.632 765.669,646.486 768.014,646.192C770.361,645.898 772.196,645.46 773.515,644.872C774.835,644.285 775.789,643.589 776.376,642.782C776.961,641.976 777.255,640.986 777.255,639.812ZM412.168,518.59C412.168,515.949 411.984,513.64 411.619,511.66C411.252,509.68 410.665,508.03 409.858,506.71C409.052,505.389 408.171,504.437 407.219,503.85C406.265,503.262 405.201,502.969 404.029,502.969L331.647,502.969L331.647,422.887C331.647,421.715 331.354,420.651 330.766,419.697C330.181,418.745 329.264,417.938 328.017,417.278C326.771,416.618 325.12,416.104 323.067,415.738C321.014,415.371 318.447,415.188 315.366,415.188C312.434,415.188 309.903,415.371 307.776,415.738C305.649,416.104 303.963,416.618 302.717,417.278C301.469,417.938 300.553,418.745 299.967,419.697C299.38,420.651 299.086,421.715 299.086,422.887L299.086,502.969L226.705,502.969C225.532,502.969 224.469,503.262 223.515,503.85C222.562,504.437 221.719,505.389 220.985,506.71C220.251,508.03 219.666,509.68 219.225,511.66C218.785,513.64 218.565,515.949 218.565,518.59C218.565,521.377 218.785,523.76 219.225,525.739C219.666,527.721 220.251,529.37 220.985,530.691C221.719,532.01 222.562,532.964 223.515,533.55C224.469,534.137 225.605,534.43 226.925,534.43L299.086,534.43L299.086,614.512C299.086,615.685 299.38,616.675 299.967,617.482C300.553,618.289 301.469,618.985 302.717,619.572C303.963,620.158 305.649,620.636 307.776,621.001C309.903,621.368 312.434,621.552 315.366,621.552C318.447,621.552 321.014,621.368 323.067,621.001C325.12,620.636 326.771,620.158 328.017,619.572C329.264,618.985 330.181,618.289 330.766,617.482C331.354,616.675 331.647,615.685 331.647,614.512L331.647,534.43L403.809,534.43C404.981,534.43 406.082,534.137 407.108,533.55C408.135,532.964 409.015,532.01 409.748,530.691C410.482,529.37 411.068,527.721 411.508,525.739C411.948,523.76 412.168,521.377 412.168,518.59Z"/>
</svg>
